PathFileType	4	(X/Y/Z)	C:/Users/opensim2020/Desktop/walking_exp_matlab/subject03_walking05_straight_03.trc	
DataRate	CameraRate	NumFrames	NumMarkers	Units	OrigDataRate	OrigDataStartFrame	OrigNumFrames	
100.00	100.00	4	45	mm	100.00	2330	293	
Frame#	Time	LFHD			RFHD			LBHD			RBHD			C7			T10			CLAV			STRN			RBAK			LSHO			LUPA			LELB			LFRM			LWRA			LWRB			LFIN			RSHO			RUPA			RELB			RFRM			RWRA			RWRB			RFIN			LASI			RASI			LPSI			RPSI			LTHI			LKNE			LTIB			LANK			LHEE			LTOE			RTHI			RKNE			RTIB			RANK			RHEE			RTOE			*39			*40			*41			*42			*43			*44			
		X1	Y1	Z1	X2	Y2	Z2	X3	Y3	Z3	X4	Y4	Z4	X5	Y5	Z5	X6	Y6	Z6	X7	Y7	Z7	X8	Y8	Z8	X9	Y9	Z9	X10	Y10	Z10	X11	Y11	Z11	X12	Y12	Z12	X13	Y13	Z13	X14	Y14	Z14	X15	Y15	Z15	X16	Y16	Z16	X17	Y17	Z17	X18	Y18	Z18	X19	Y19	Z19	X20	Y20	Z20	X21	Y21	Z21	X22	Y22	Z22	X23	Y23	Z23	X24	Y24	Z24	X25	Y25	Z25	X26	Y26	Z26	X27	Y27	Z27	X28	Y28	Z28	X29	Y29	Z29	X30	Y30	Z30	X31	Y31	Z31	X32	Y32	Z32	X33	Y33	Z33	X34	Y34	Z34	X35	Y35	Z35	X36	Y36	Z36	X37	Y37	Z37	X38	Y38	Z38	X39	Y39	Z39	X40	Y40	Z40	X41	Y41	Z41	X42	Y42	Z42	X43	Y43	Z43	X44	Y44	Z44	X45	Y45	Z45	

220	2.190	-1102.89917	518.79437	1616.51526	-972.34009	492.28601	1625.04163	-1122.55457	390.48581	1577.82361	-993.63940	369.68335	1586.00781	-1061.35352	344.02533	1419.26257	-1060.62903	310.34052	1104.40881	-1047.02319	463.69839	1341.10852	-1045.92664	507.53372	1176.91479	-970.07959	279.14093	1243.50427	-1206.97852	433.40643	1376.54309	-1277.85681	434.62897	1178.79944	-1288.64001	445.83356	1056.08691	-1282.36035	474.00726	928.61017	-1249.18787	488.05072	811.81689	-1303.56372	476.88147	815.96448	-1290.32434	491.52963	733.26489	-892.84113	402.04080	1366.40833	-825.11420	415.03656	1143.24695	-814.79846	443.24982	1033.22034	-816.96844	480.06357	901.46051	-855.20160	526.98114	814.28412	-812.78571	495.35565	802.13324	-825.28937	529.82208	736.73706	-1165.38037	486.72058	945.13489	-926.71600	466.08273	938.22028	-1128.12708	321.04977	967.14343	-979.18793	309.47046	966.26758	-1204.93481	443.47668	643.27618	-1162.62134	454.29224	465.79941	-1166.56885	410.83817	274.93994	-1123.81580	400.22507	65.09490	-1090.26099	358.45187	30.22034	-1092.17505	552.66095	30.00683	-884.38556	450.26437	639.94403	-903.07318	502.49039	467.54669	-910.62695	362.66971	340.73016	-961.59753	204.60237	197.41890	-1020.20282	156.78336	202.48358	-963.45819	272.09689	72.36054	-1070.50208	431.14911	1683.10474															 
221	2.200	-1102.49402	527.99036	1616.58179	-972.00256	501.22171	1625.07471	-1122.44458	399.78857	1577.89343	-993.61719	378.64951	1586.00989	-1061.45142	352.98795	1419.44250	-1061.03503	318.93204	1104.67566	-1046.93689	472.56308	1341.14148	-1046.18604	516.10608	1176.89014	-970.51935	287.74197	1243.79163	-1206.78979	442.66122	1377.10596	-1278.16040	446.64804	1179.99158	-1289.07275	460.61264	1057.60022	-1282.73914	491.10715	930.54669	-1249.93616	507.52966	814.25525	-1304.35510	497.00653	818.49957	-1291.40710	514.36621	736.43146	-892.90100	410.46924	1366.45068	-825.43732	421.86337	1143.06104	-815.03040	449.31686	1032.85181	-816.69537	484.55432	900.60791	-854.49921	530.59717	812.76947	-812.23517	498.61172	801.25037	-823.90778	532.55743	735.58936	-1166.03845	495.16238	945.22748	-927.58215	475.30353	939.13708	-1128.38220	329.69339	966.96979	-979.30988	318.35648	966.44379	-1205.15955	450.57578	642.94470	-1162.66199	459.77408	465.53870	-1166.66431	414.17279	274.99063	-1123.74158	400.43729	65.20887	-1090.33569	358.56686	30.35196	-1092.07617	552.82062	29.99825	-884.58887	464.40820	641.20618	-903.92926	519.87659	469.79810	-911.46844	382.98959	339.76746	-962.32306	228.19347	193.19678	-1020.51587	179.38007	196.57358	-965.16315	299.64468	70.50900	-1069.75122	439.60428	1681.95020															 
222	2.210	-1102.00781	537.20453	1616.61853	-971.58197	510.18619	1625.01929	-1122.27612	408.99878	1577.88916	-993.46002	387.58652	1585.90344	-1061.56714	361.89709	1419.56055	-1061.30945	327.49268	1104.83350	-1046.79944	481.44565	1341.15515	-1046.45447	524.67883	1176.78076	-970.80615	296.24026	1243.95972	-1206.53857	451.90103	1377.61499	-1278.58887	458.50259	1181.26050	-1289.55725	475.17328	1059.16919	-1283.16528	508.36230	932.88385	-1250.54309	527.14178	816.69763	-1304.92834	516.82092	820.98370	-1292.70642	537.78424	739.89832	-892.94476	418.93671	1366.46936	-825.63208	428.47800	1142.81934	-815.08289	455.21118	1032.49939	-816.44269	488.98358	899.93848	-853.68994	534.22968	811.39801	-811.59760	501.87598	800.38184	-822.50494	535.32001	734.47412	-1166.36536	503.54803	945.50684	-928.23499	484.18225	939.80060	-1128.53015	338.23642	966.83887	-979.45825	327.15536	966.58276	-1205.24304	457.64172	642.74841	-1162.72009	465.15256	465.19519	-1166.70764	417.31433	275.07233	-1123.74353	400.79736	65.38396	-1090.33057	359.10135	30.12810	-1092.07678	553.02405	30.08251	-885.18280	478.90146	642.41748	-904.72443	537.02783	472.07816	-912.19342	403.38321	338.31970	-963.17145	252.16725	188.05298	-1020.96851	202.74792	189.61572	-966.76666	328.39514	68.29883	-1069.87598	449.28040	1683.54602															 
223	2.220	-1101.52673	546.35162	1616.57959	-971.07257	519.15118	1624.85205	-1122.11304	418.21866	1577.88611	-993.28033	396.51999	1585.74060	-1061.61438	370.84143	1419.61523	-1061.49878	336.05109	1104.94714	-1046.67761	490.25891	1341.03577	-1046.68445	533.21344	1176.61853	-971.03461	304.88043	1244.31873	-1206.34729	461.07288	1378.07227	-1279.15540	470.34247	1182.42749	-1290.10779	489.42383	1060.75183	-1283.75293	525.66583	935.47107	-1250.90356	546.57416	819.49634	-1305.44409	536.69891	823.72449	-1293.28503	559.62134	743.51538	-892.96533	427.47638	1366.38818	-825.71338	434.98495	1142.51770	-814.93536	460.93878	1032.11389	-815.92133	493.31873	899.18317	-852.76392	537.94525	810.10699	-810.88281	505.13837	799.58655	-821.22211	538.23553	733.42767	-1166.56970	511.75323	945.34277	-928.85663	492.99988	940.21570	-1128.62695	346.70096	966.60437	-979.53906	335.90158	966.57916	-1205.27246	464.66193	642.44696	-1162.80652	470.34592	464.92844	-1166.71240	420.21530	275.16675	-1123.60999	401.11362	65.66238	-1090.04480	358.99298	31.01170	-1091.95178	552.99976	29.79877	-885.47784	492.81299	643.79865	-905.62994	553.76599	474.33621	-912.90186	423.69406	336.53986	-964.04242	276.89185	181.93994	-1021.59918	226.92006	181.67900	-968.35193	358.06812	65.91937	-1069.31494	458.10248	1682.40649															 
